<?xml version="1.0" standalone="no"?>
<!DOCTYPE svg PUBLIC "-//W3C//DTD SVG 20010904//EN"
 "http://www.w3.org/TR/2001/REC-SVG-20010904/DTD/svg10.dtd">
<svg version="1.0" xmlns="http://www.w3.org/2000/svg"
 width="300.000000pt" height="300.000000pt" viewBox="0 0 300.000000 300.000000"
 preserveAspectRatio="xMidYMid meet">
<metadata>
Created by potrace 1.14, written by Peter Selinger 2001-2017
</metadata>
<g transform="translate(0.000000,300.000000) scale(0.100000,-0.100000)"
fill="#000000" stroke="none">
<path d="M1413 2078 c-6 -7 -61 -238 -123 -513 -96 -426 -111 -509 -107 -561
2 -33 12 -73 22 -87 l17 -27 -150 0 c-126 0 -153 3 -167 16 -20 20 -16 53 7
68 13 7 37 6 92 -5 79 -17 100 -13 94 17 -4 21 -96 52 -160 53 -45 1 -94 -36
-103 -78 -10 -45 18 -99 59 -116 52 -22 498 -22 516 0 20 25 4 42 -44 47 -61
7 -94 31 -118 84 l-19 45 107 482 c59 265 109 484 110 486 2 2 15 -6 31 -16
80 -56 186 -56 266 0 16 10 29 18 31 16 1 -2 51 -221 110 -486 l108 -482 -20
-44 c-23 -53 -55 -77 -112 -84 -45 -6 -60 -24 -40 -48 15 -18 32 -19 82 -5 78
22 138 102 138 185 0 59 -218 1036 -236 1054 -11 12 -19 9 -53 -22 -55 -49
-92 -67 -144 -67 -45 0 -112 35 -151 78 -22 25 -30 27 -43 10z"/>
<path d="M1484 1776 c-10 -26 4 -48 28 -44 17 2 23 10 23 28 0 18 -6 26 -23
28 -13 2 -25 -3 -28 -12z"/>
<path d="M1684 1776 c-10 -26 4 -48 28 -44 17 2 23 10 23 28 0 18 -6 26 -23
28 -13 2 -25 -3 -28 -12z"/>
<path d="M1364 1376 c-8 -20 84 -476 101 -502 22 -34 71 -50 111 -35 27 10 41
10 67 0 27 -10 38 -9 65 5 17 9 36 24 41 34 14 27 103 482 97 498 -6 16 -42
19 -51 4 -3 -5 -26 -112 -51 -237 -25 -125 -52 -234 -59 -242 -11 -12 -17 -12
-29 -2 -13 11 -16 47 -18 200 l-3 186 -25 0 -25 0 -5 -189 c-4 -165 -7 -190
-22 -200 -13 -8 -21 -7 -32 4 -8 8 -35 116 -60 243 -25 125 -48 232 -51 237
-9 15 -45 12 -51 -4z"/>
</g>
</svg>
