<?xml version="1.0" encoding="iso-8859-1"?>
<!-- Generator: Adobe Illustrator 19.0.0, SVG Export Plug-In . SVG Version: 6.00 Build 0)  -->
<svg version="1.1" id="Capa_1" xmlns="http://www.w3.org/2000/svg" xmlns:xlink="http://www.w3.org/1999/xlink" x="0px" y="0px"
	 viewBox="0 0 512 512" style="enable-background:new 0 0 512 512;" xml:space="preserve">
<path style="fill:#8ADBA1;" d="M92.548,350.478c19.794,6.501,35.202,21.91,41.704,41.704c9.721,29.596,34.878,64.524,88.197,65.264
	C378.965,459.62,501.171,195.142,482.921,57.05c-3.805-28.793-26.448-51.435-55.241-55.241
	C289.588-16.442,25.11,105.765,27.284,262.28C28.025,315.6,62.952,340.757,92.548,350.478z"/>
<path style="fill:#7ACF90;" d="M199.054,250.91c-49.467-16.602-25.078-147.948,37.437-214.643
	C126.734,81.688,25.938,165.411,27.284,262.28c0.741,53.32,35.668,78.477,65.264,88.197c19.794,6.501,35.203,21.91,41.704,41.704
	c9.72,29.596,34.877,64.524,88.197,65.264c64.923,0.902,123.941-44.078,169.482-106.885
	C258.265,400.494,192.843,286.825,199.054,250.91z"/>
<g>
	<path style="fill:#5FB87D;" d="M378.254,205.68c-1.549,0-3.111-0.478-4.452-1.469c-9.197-6.798-26.216-12.578-46.691-15.857
		c-19.32-3.094-35.137-2.887-40.776-1.084c-3.948,1.262-8.166-0.913-9.429-4.857c-1.262-3.945,0.913-8.166,4.858-9.429
		c16.795-5.376,75.351,0.241,100.954,19.165c3.331,2.462,4.035,7.158,1.573,10.489C382.82,204.627,380.552,205.68,378.254,205.68z"
		/>
	<path style="fill:#5FB87D;" d="M209.69,241.81c-0.391,0-0.785-0.03-1.184-0.094c-4.091-0.648-6.882-4.491-6.232-8.582
		c5.61-35.378-11.339-67.365-30.967-77.851c-3.653-1.952-5.033-6.496-3.081-10.149c1.951-3.652,6.493-5.032,10.149-3.081
		c13.165,7.033,24.426,20.204,31.707,37.086c7.517,17.426,10.005,37.436,7.006,56.345C216.502,239.176,213.315,241.81,209.69,241.81
		z"/>
	<path style="fill:#5FB87D;" d="M255.923,336.196c-1.665,0.001-3.341-0.552-4.732-1.686c-24.318-19.815-61.504-19.609-79.644-16.364
		c-4.073,0.731-7.974-1.985-8.703-6.062c-0.73-4.078,1.984-7.974,6.063-8.704c5.691-1.019,56.63-9.124,91.759,19.502
		c3.212,2.616,3.693,7.34,1.077,10.552C260.26,335.252,258.101,336.196,255.923,336.196z"/>
	<path style="fill:#5FB87D;" d="M355.085,108.414c-0.834,0-1.683-0.14-2.513-0.436c-3.902-1.388-5.941-5.676-4.554-9.579
		c3.738-10.514,3.904-31.366-2.29-48.061c-1.441-3.883,0.539-8.2,4.422-9.641c3.886-1.442,8.2,0.54,9.641,4.423
		c6.833,18.415,7.825,42.936,2.36,58.304C361.06,106.497,358.169,108.414,355.085,108.414z"/>
</g>
<path style="fill:#67C787;" d="M96.193,512c-8.752,0-16.763-5.836-19.143-14.691c-25.134-93.489,44.499-193.924,107.34-261.715
	c71.091-76.691,155.637-136.642,192.967-154.718c9.854-4.776,21.722-0.653,26.496,9.208c4.775,9.86,0.652,21.723-9.207,26.497
	c-33.543,16.242-114.316,73.871-181.161,145.982c-37.15,40.076-64.672,78.737-81.799,114.906
	c-19.373,40.916-24.867,77.77-16.325,109.54c2.845,10.58-3.426,21.461-14.005,24.306C99.629,511.779,97.898,512,96.193,512z"/>
<path style="fill:#5FB87D;" d="M182.298,237.864C120.017,305.614,52.194,404.856,77.05,497.309C79.43,506.164,87.441,512,96.193,512
	c1.705,0,3.436-0.221,5.162-0.685c10.579-2.844,16.85-13.726,14.005-24.306c-8.541-31.77-3.048-68.625,16.325-109.54
	c15.286-32.28,38.857-66.544,70.156-102.028C189.492,274.446,178.283,254.146,182.298,237.864z"/>
<g>
</g>
<g>
</g>
<g>
</g>
<g>
</g>
<g>
</g>
<g>
</g>
<g>
</g>
<g>
</g>
<g>
</g>
<g>
</g>
<g>
</g>
<g>
</g>
<g>
</g>
<g>
</g>
<g>
</g>
</svg>
